# xmcd
#
# Track frame offsets:
#	150
#	17174
#	36389
#	58891
#	79120
#	105700
#	124536
#	140432
#	159790
#	175973
#	194512
#	211903
#	225410
#	239846
#	253985
#
# Disc length: 3687 seconds
#
# Revision: 2
# Processed by: cddbd v1.5.2PL0 Copyright (c) Steve Scherf et al.
# Submitted via: audiograbber 1.83.01
#
DISCID=d30e650f
DTITLE=Chartbuster  - CB60345 Country Hits of December 2005
DYEAR=2005
DGENRE=Country
TTITLE0=Tim McGraw - My Old Friend (Key of E)
TTITLE1=Kenny Chesney - Who You'd Be Today (Key of D)
TTITLE2=Sugarland - Stand Back Up (Key of Ab)
TTITLE3=Sawyer Brown - They Don't Understand (Key of G)
TTITLE4=Brooks and Dunn - Believe (Key of A)
TTITLE5=Brice Long - Anywhere But Here (Key of C)
TTITLE6=Shannon Brown - Corn Fed (Key of E)
TTITLE7=Brad Paisley feat. Dolly Parton - When I Get Where I'm Going (Key of C)
TTITLE8=Lila McCann - I'm Amazed (Key of Bb)
TTITLE9=Alison Krauss and Union Station - Goodbye Is All We Have (Key of F)
TTITLE10=Keni Thomas (Kenny Tomas) - Gloryland (Key of F)
TTITLE11=Warren Brothers, The - Change (Key of Em)
TTITLE12=Buddy Jewell - So Gone (Key of B)
TTITLE13=Chris LeDoux - Airborne Cowboy (Key of A)
TTITLE14=Chely Wright - The River
EXTD=
EXTT0=
EXTT1=
EXTT2=
EXTT3=
EXTT4=
EXTT5=
EXTT6=
EXTT7=
EXTT8=
EXTT9=
EXTT10=
EXTT11=
EXTT12=
EXTT13=
EXTT14=
PLAYORDER=
